<svg xmlns="http://www.w3.org/2000/svg" viewBox="0 0 512 512"><rect width="512" height="512" rx="112" fill="#22c55e"/><path d="M 188 352 L 188 184 L 280 300 L 372 184 L 372 352" fill="none" stroke="#ffffff" stroke-width="46" stroke-linecap="round" stroke-linejoin="round"/><path d="M 216.0 205.8 C 192.0 181.7 123.0 180.0 118.5 226.4 C 114.0 257.4 163.5 259.1 175.5 266.0 C 190.5 274.6 223.5 274.6 220.5 305.6 C 217.5 336.5 159.0 348.6 126.0 322.8 " fill="none" stroke="#22c55e" stroke-width="64" stroke-linecap="round" stroke-linejoin="round"/><path d="M 216.0 205.8 C 192.0 181.7 123.0 180.0 118.5 226.4 C 114.0 257.4 163.5 259.1 175.5 266.0 C 190.5 274.6 223.5 274.6 220.5 305.6 C 217.5 336.5 159.0 348.6 126.0 322.8 " fill="none" stroke="#ffffff" stroke-width="46" stroke-linecap="round" stroke-linejoin="round"/></svg>