<svg xmlns="http://www.w3.org/2000/svg" viewBox="0 0 900 260" font-family="DejaVu Sans, Arial, sans-serif"><rect x="20" y="34" width="192" height="192" rx="44" fill="#22c55e"/><g transform="translate(20,34) scale(0.375)"><rect x="-10" y="-10" width="0" height="0"/><path d="M 188 352 L 188 184 L 280 300 L 372 184 L 372 352" fill="none" stroke="#ffffff" stroke-width="46" stroke-linecap="round" stroke-linejoin="round"/><path d="M 216.0 205.8 C 192.0 181.7 123.0 180.0 118.5 226.4 C 114.0 257.4 163.5 259.1 175.5 266.0 C 190.5 274.6 223.5 274.6 220.5 305.6 C 217.5 336.5 159.0 348.6 126.0 322.8 " fill="none" stroke="#22c55e" stroke-width="64" stroke-linecap="round" stroke-linejoin="round"/><path d="M 216.0 205.8 C 192.0 181.7 123.0 180.0 118.5 226.4 C 114.0 257.4 163.5 259.1 175.5 266.0 C 190.5 274.6 223.5 274.6 220.5 305.6 C 217.5 336.5 159.0 348.6 126.0 322.8 " fill="none" stroke="#ffffff" stroke-width="46" stroke-linecap="round" stroke-linejoin="round"/></g><text x="250" y="138" font-size="96" font-weight="bold" fill="#1a1a1a">Sport<tspan fill="#22c55e">Mate</tspan></text><text x="252" y="196" font-size="40" font-weight="bold" fill="#94a3b8" letter-spacing="6">BATUMI</text></svg>