<svg xmlns="http://www.w3.org/2000/svg" viewBox="0 0 372 232"><path d="M 112 192 L 112 24 L 204 140 L 296 24 L 296 192" fill="none" stroke="#22c55e" stroke-width="46" stroke-linecap="round" stroke-linejoin="round"/><path d="M 140.0 45.8 C 116.0 21.7 47.0 20.0 42.5 66.4 C 38.0 97.4 87.5 99.1 99.5 106.0 C 114.5 114.6 147.5 114.6 144.5 145.6 C 141.5 176.5 83.0 188.6 50.0 162.8 " fill="none" stroke="#ffffff" stroke-width="64" stroke-linecap="round" stroke-linejoin="round"/><path d="M 140.0 45.8 C 116.0 21.7 47.0 20.0 42.5 66.4 C 38.0 97.4 87.5 99.1 99.5 106.0 C 114.5 114.6 147.5 114.6 144.5 145.6 C 141.5 176.5 83.0 188.6 50.0 162.8 " fill="none" stroke="#22c55e" stroke-width="46" stroke-linecap="round" stroke-linejoin="round"/></svg>